<svg id="Layer_1" data-name="Layer 1" xmlns="http://www.w3.org/2000/svg" viewBox="0 0 512 512"><defs><style>.cls-1{fill:#835fff;}.cls-2{fill:#b4b6ff;opacity:0.74;}.cls-2,.cls-3,.cls-7{isolation:isolate;}.cls-3{fill:#6b00bf;opacity:0.67;}.cls-4{fill:#946aff;}.cls-5{fill:#27007f;}.cls-6{fill:#4400c9;}.cls-7{fill:#fff;opacity:0.3;}.cls-8{opacity:0.4;}.cls-9{fill:#4400bd;}.cls-10{opacity:0.25;}.cls-11{fill:#4100d4;}.cls-12{fill:#7100c9;}.cls-13{fill:#0025bf;}.cls-14{fill:#0051b4;}.cls-15{fill:#5a3fff;}.cls-16{fill:#11007f;}.cls-17{fill:#2f15ff;}.cls-18{fill:#8a97ff;}.cls-19{fill:#2e00e9;}.cls-20{fill:#040094;}.cls-21{fill:#4e2aff;}.cls-22{fill:#2a36ff;}.cls-23{fill:#4b35ff;}.cls-24{fill:#3f4aff;}.cls-25{fill:#5015ff;}.cls-26{fill:#55f;}.cls-27{fill:#00447f;}.cls-28{fill:#002ee9;}.cls-29{fill:#00a3df;}.cls-30{fill:#002a8a;}.cls-31{fill:#00206a;}.cls-32{fill:#35009f;}.cls-33{fill:#0056bf;}</style></defs><path class="cls-1" d="M488.61,278.3C465,205,481.94,122.74,450.86,60.92S157.83-27.55,87.8,88.41c0,0-8.07,90.24-63.5,194.43-32.83,61.71,45,99.32,122.85,133.85L266.34,307c4.54.4,55-34.21,55-34.21l-148,155.54c44,19.63,83.87,39,98.53,62.19C314.88,558.46,512.22,351.62,488.61,278.3Z"/><path id="path315" class="cls-2" d="M78.36,175s24-123.31,139.8-105.89S396.53,149.53,286,212.52,117,266.15,78.36,175Z"/><path id="path317" class="cls-3" d="M51.17,400.54c74.57-64.39,156.66-111,237.18-77.31s94.52-32.75,103.24-96.42S592,334.14,451.1,395.09,274.35,426,270,387.81,51.17,400.54,51.17,400.54Z"/><path class="cls-4" d="M283,291,143.88,414.68c10,4.44,23.3,10.21,33.12,14.59L345.65,252S288.16,291.48,283,291Z"/><g id="legs"><path id="path323" class="cls-5" d="M178.74,319.92s5.69,38.12,2.83,46.73-8.73,22.42-8.73,22.42a70.19,70.19,0,0,1,7.55-6.34c1.35-1,3.19-2.5,5-2.4,1,.05,1.79,1.06,2.45,1.74a38.82,38.82,0,0,1,4.49,5.57,16.72,16.72,0,0,1,2.95,7.43v.09a10,10,0,0,1-1.3,6.16s5.72,2,5.09-11c.47.67.92,1.35,1.35,2.06a13.23,13.23,0,0,1,1.72,3.74c0-.13.12-.28.16-.41s.13-.48.2-.73c.11-.46.22-.94.31-1.41.2-1,.37-1.93.51-2.9a18.94,18.94,0,0,0,.27-2.6c0-1.44,0-2.08,1.56-1a3.85,3.85,0,0,1,1.55,3.43,8.92,8.92,0,0,0,.22-4.81A54.5,54.5,0,0,0,201,369.17a69.79,69.79,0,0,1-8.26-35.68,79.11,79.11,0,0,1,1.91-15.4S179.35,320.52,178.74,319.92Z"/><path id="path325" class="cls-5" d="M214.8,314.19s2.75,25.93,2.75,27.51-6.49,11.19-7,13.77c0,0,9.65-2.23,11.3-.58s12.24,8.53,6.52,21.15c0,0,7-4.24,7-7.42,0,0,3.81,1.91,3.28,4.88,0,0,3.4-5.61,1.7-9.65,0,0,5,3.74,5,5.3,0,0,6.37-6.47,1-13.15s-9.65-4.67-13.57-10.39-3.93-35.08-3.93-35.08-12.8,3.66-14,3.66Z"/></g><path id="path328" class="cls-6" d="M481.58,76.64a206.53,206.53,0,0,0-47.19,47.68c-35.33,50.47-62.3,109.08-114.5,145-24.43,16.82-51.81,29-80,37.94-29.47,9.34-61,15.69-92,12.24a428.63,428.63,0,0,1-44.75-7.56l-239,128.6,14.73-12.17-31.5,14.34L75.55,263.57l28.55-30.88S234.86,103.49,275,101.06s54.65-26.79,54.65-26.79a43.64,43.64,0,0,1,7.61-6.35h0c.36-.09,6.3-1.59,14.84-3.11,0,0,62,18.37,85.89,11.1h0C465.07,81.87,481.58,76.64,481.58,76.64Z"/><circle id="circle330" cx="389.74" cy="90.85" r="10.5"/><ellipse id="ellipse332" class="cls-7" cx="392.37" cy="93.18" rx="4.67" ry="4.21"/><ellipse id="ellipse334" class="cls-7" cx="392.87" cy="84.23" rx="1.73" ry="1.27"/><path id="path387" d="M433.7,93.45s44.54-16.2,47.88-16.82C481.58,76.64,463.08,85.57,433.7,93.45Z"/><path id="path391" class="cls-8" d="M406.6,65.08c-14.75-5.78-38.92-3-54.48-.28-8.53,1.5-14.47,3-14.83,3.11,10.8-7.34,32.91-16.93,65.23-4.78,1.38.68,2.74,1.32,4.08,1.95Z"/><path id="path399" class="cls-9" d="M438,75.9a34.12,34.12,0,0,1-4,.93c-1.51.25-3,.43-4.53.55-1.66.13-3.32.19-5,.21s-3.56,0-5.34-.08-3.75-.21-5.61-.36-3.88-.36-5.82-.59-4-.49-5.93-.77-4-.63-6-.93-3.94-.69-5.91-1.06-3.85-.74-5.77-1.13-3.7-.77-5.55-1.18-3.49-.78-5.24-1.19l-4.86-1.16c-1.46-.36-2.92-.72-4.36-1.1-1.29-.32-2.56-.62-3.84-1l-3.19-.86c-1.24-.34-2.49-.67-3.73-1a5,5,0,0,1-.75-.16c-.31-.13,0-.29.17-.35a4.24,4.24,0,0,1,.94-.19l1.64-.27q1.71-.28,3.42-.54,3.66-.53,7.32-1,3.86-.43,7.72-.71c2.58-.18,5.25-.31,7.88-.35s5.18,0,7.76.14a72.81,72.81,0,0,1,7.39.75,50.43,50.43,0,0,1,6.77,1.48c1,.3,2,.62,3,1s1.95.9,2.92,1.32A150.27,150.27,0,0,0,438,75.9Z"/><g class="cls-10"><path id="path389" d="M366.09,188.31s-86.85,105.48-220,111.19c0,0,133.62,4.29,220-111.19Z"/><path id="path385" d="M358.93,170.65s-60.13,85.9-136,96c0,0,85.9-11,136-96Z"/><path id="path393" d="M400.8,178S324.73,282.78,155.51,317.71C155.51,317.71,295.23,334.79,400.8,178Z"/><path id="path395" d="M67.83,300.45-40.5,373S64.65,305.44,67.83,300.45Z"/><path id="path397" d="M341.44,103.58,375.79,101s-10.18,3.82-12.08,5.73,14.21.42,14.21.42l-6.58,5.09s13.79.21,19.94-1.7,22.89-6.77,22.89-6.77l-12.92,6.58,18.45-1.25L401.25,117h11.88a68.17,68.17,0,0,1-36.48,7.85c-20.79-1.49-24.61-8.91-32.88-8.91,0,0,10.34-2.06,11.87-2.64,0,0-3.44-3-10.33-3s-11.09-5.94-11.09-5.94Z"/><polygon id="polygon401" points="-152.65 442.67 61.67 274.67 -121.15 428.35 -152.65 442.67"/><polygon id="polygon403" points="8.97 357.72 103.14 311.91 -135.88 440.52 8.97 357.72"/></g><path id="path336" class="cls-11" d="M296.21,169.46A130.63,130.63,0,0,1,273,182.31c-16.54,6.76-27.16,5-34,.24-10.88-7.56-12-22.66-12-22.66,9.7,1.92,26,4,40.05.47.33.39,9.6,11,26.64,5.55a20.51,20.51,0,0,0,2.51,3.55Z"/><path id="path338" class="cls-12" d="M224.85,203c-6,5.56-11.85,7.48-17.12,7.27a21.77,21.77,0,0,1-8.12-2c-10.42-4.69-17.34-15.94-17.34-15.94,4-.92,8.54-3.33,13.26-8.17a43.63,43.63,0,0,0,13.28,3.37A47,47,0,0,0,224.85,203Z"/><path id="path340" class="cls-13" d="M199.61,208.3c-10.1,7-18.9,11.35-26.55,13.82-8.59,2.78-15.72,3.2-21.57,2.23h0a31.62,31.62,0,0,1-23.24-16.95c6.2-1.58,14-6.89,23.42-18.92a33.67,33.67,0,0,0,11.6-2.32c.31.34,8,8.72,19,6.2,0,0,6.92,11.25,17.34,15.94Z"/><path id="path342" class="cls-14" d="M195.53,184.19c-4.72,4.83-9.22,7.25-13.26,8.17-11,2.51-18.69-5.87-19-6.21,5.52-2.07,11.7-5.69,18.56-11.43a43.3,43.3,0,0,0,13.7,9.47Z"/><path id="path344" class="cls-15" d="M216.16,226.79c-37.75,12.6-43.1-4.67-43.1-4.67,7.68-2.47,16.45-6.84,26.55-13.82a21.83,21.83,0,0,0,8.13,2A21.42,21.42,0,0,0,216.16,226.79Z"/><path id="path346" class="cls-16" d="M320,107c-52.93,19.63-72.69-5.07-73.09-5.58,1.36-.31,2.72-.6,4.08-.89,15.76-3.25,34.14-7.67,49.91-2.38A90.76,90.76,0,0,1,320,107Z"/><path id="path348" class="cls-17" d="M174.38,259.76a351.37,351.37,0,0,1-49.24,6,50.36,50.36,0,0,1-24.31-5.6h0a38.26,38.26,0,0,1-10-7.25c9.22,1.05,20.82-1,33.14-11.2a18.6,18.6,0,0,0,11.18,6.2c0,.34-.39,12.34,39.23,11.88Z"/><path id="path350" class="cls-18" d="M42.66,279c5.44-8.06,11.07-16.53,18.21-23.2.46-.42,11.52,3.84,12.59,4.11a64.15,64.15,0,0,0,25.81.78,6.77,6.77,0,0,1,2.06-.11,7.55,7.55,0,0,1,2,.69,50.31,50.31,0,0,0,21.86,4.44"/><path id="path352" class="cls-19" d="M100.89,260.13c-17.41,5.76-40-4.32-40-4.32a88.3,88.3,0,0,0,9.66-11.14,41.64,41.64,0,0,0,20.33,8.2h0A38.07,38.07,0,0,0,100.89,260.13Z"/><path id="path354" class="cls-20" d="M137.47,218.39c-34.56,26.63-49.73,2.77-49.73,2.77,5.56-7.47,12.16-16,20.33-25.76,0,0,6.12,15.58,20.18,12A31,31,0,0,0,137.47,218.39Z"/><path id="path356" class="cls-21" d="M151.67,188.47c-9.46,12-17.22,17.34-23.42,18.92-14.07,3.59-20.18-12-20.18-12,5.58-6.67,11.89-13.9,19.08-21.7,0,0,7.78,14.92,24.52,14.77Z"/><path id="path358" class="cls-22" d="M264.33,227c-5.38,3-10.78,5.84-16.11,8.41a315.51,315.51,0,0,1-29.44,12.12l-2.81,1h-.09c-30.75,9.27-47.24.64-55.79-8.8a38.24,38.24,0,0,1-8.6-15.4c5.85.94,13,.55,21.57-2.23,0,0,5.35,17.28,43.1,4.67h0c7.49,5.59,21.59,8.54,48.17.23Z"/><path id="path360" class="cls-23" d="M215.88,248.58a300.28,300.28,0,0,1-41.49,11.18h0c-39.61.46-39.22-11.52-39.19-11.88a18.62,18.62,0,0,1-11.19-6.2c-12.31,10.24-23.91,12.25-33.13,11.2h0a41.64,41.64,0,0,1-20.33-8.2c4.72-6.19,10.11-14,17.21-23.52,0,0,15.19,23.86,49.73-2.76a31.17,31.17,0,0,0,14,5.95h0a38.06,38.06,0,0,0,8.6,15.43c8.53,9.44,25,18.08,55.77,8.8Z"/><path id="path362" class="cls-24" d="M293.74,207.68A245.88,245.88,0,0,1,264.35,227h0c-26.59,8.31-40.69,5.35-48.17-.24h0a21.4,21.4,0,0,1-8.44-16.51c5.28.21,11.07-1.7,17.12-7.27,9.15,5.29,22.26,8.32,39.42,1.5C269.65,210.08,278.67,213.4,293.74,207.68Z"/><path id="path364" class="cls-17" d="M320,183.18a177.42,177.42,0,0,1-26.23,24.5c-15.08,5.72-24.1,2.4-29.48-3.14-17.15,6.84-30.27,3.79-39.42-1.5a46.87,46.87,0,0,1-16-15.49c8.32.8,18.29-.43,30.19-5,6.8,4.74,17.42,6.52,34-.24.35.49,17.75,23.24,47,.87Z"/><path id="path366" class="cls-25" d="M198.39,156.53c-10.73,4.6-19.15,5.66-25.67,4.92-15.19-1.74-20.11-13.34-20.11-13.34q6.91-6,14.36-11.38h0l.05.05.07.07.18.18.13.14.34.34.18.17.89.86.44.41.92.83.42.38c1.08,1,2.38,2.06,3.84,3.25l.48.37,1.15.89.46.34.51.38.56.41.58.42c2.05,1.45,4.32,2.95,6.78,4.37l1.19.64c.73.41,1.49.82,2.25,1.2.39.2.78.4,1.19.59l.75.36.89.41,1.13.49c.35.16.71.31,1.06.45s.56.23.85.33l.8.31.81.3.82.28,1,.32Z"/><path id="path368" class="cls-26" d="M239,182.55c-11.9,4.57-21.88,5.8-30.19,5a43.61,43.61,0,0,1-13.28-3.36,43.15,43.15,0,0,1-13.69-9.47,44.51,44.51,0,0,1-9.12-13.26c6.52.75,14.94-.32,25.67-4.92l.12,0,1.28.36.9.24,1,.23.73.16c.35.08.71.15,1.06.21l.87.16c.34.06.64.12,1,.16.55.09,1.09.15,1.63.21l.54.06.69.06.53,0c.71,0,1.42.07,2.13.08h.86c1,0,1.92-.05,2.88-.14s1.92-.2,2.84-.36l1-.17s3.34,1,8.63,2c0,0,1.13,15.1,12,22.66Z"/><path id="path370" class="cls-27" d="M181.84,174.72c-6.87,5.75-13.05,9.36-18.56,11.43a33.45,33.45,0,0,1-11.61,2.32c-16.73.15-24.51-14.77-24.51-14.77q6.51-7.08,14-14.79c2.23-2.29,4.52-4.51,6.86-6.69,1.49-1.38,3-2.75,4.56-4.1,0,0,4.92,11.6,20.1,13.34A45,45,0,0,0,181.84,174.72Z"/><path id="path372" class="cls-28" d="M246.39,137.76c-8.86,12.44-18.56,18.28-28,20.12l-1,.17c-.95.16-1.9.29-2.84.36s-1.92.13-2.88.14h-.86c-.72,0-1.43,0-2.14-.08l-.53,0-.68-.06-.54-.06c-.55-.06-1.09-.12-1.63-.2l-1-.16-.86-.16-1.07-.22-.72-.16-1-.23-.9-.24-1.28-.36-.12,0-.68-.21-1-.32-.82-.29-.82-.29-.8-.31c-.28-.11-.57-.22-.84-.34s-.71-.28-1.06-.44l-1.14-.5c-.29-.12-.58-.27-.88-.4l-.75-.36-1.19-.59c-.76-.39-1.52-.79-2.26-1.2l-1.18-.64c-2.46-1.42-4.73-2.92-6.78-4.38l-.58-.41-.56-.41-.51-.38-.46-.34-1.15-.89c-.16-.13-.33-.25-.48-.38-1.5-1.18-2.8-2.29-3.84-3.25-.15-.12-.29-.25-.42-.37l-.92-.83-.44-.41c-.34-.33-.64-.64-.89-.86l-.18-.17-.34-.34-.14-.14-.17-.18-.08-.07a.1.1,0,0,0,0-.05h0a205.17,205.17,0,0,1,17.92-11.52s23.12,20,61.46,12.49Z"/><path id="path374" class="cls-29" d="M280.89,124.54a115,115,0,0,1-34.5,13.21c-38.34,7.52-61.51-12.53-61.51-12.53q8.06-4.62,16.52-8.51,4.66-2.14,9.43-4.07h0c.52.39,27.28,20.38,63.3,7.36a35.85,35.85,0,0,0,6.76,4.54Z"/><path id="path376" class="cls-30" d="M340.84,140.69c-.22,8.71-3.39,17.21-7.89,24.72-19.83,18.43-31.85,9.73-36.72,4.05a20.51,20.51,0,0,1-2.51-3.55c-17,5.48-26.3-5.16-26.63-5.55-14.08,3.49-30.35,1.42-40-.47-5.29-1-8.63-2-8.63-2,9.46-1.84,19.15-7.68,28-20.12a114.88,114.88,0,0,0,34.5-13.21c1.28.69,2.72,1.4,4.34,2.08,0,0-13,18.14,19.6,19.14s36-5.08,36-5.08Z"/><path id="path378" class="cls-31" d="M332.93,165.41A127.53,127.53,0,0,1,320,183.18c-29.26,22.4-46.66-.38-47-.87a130.63,130.63,0,0,0,23.25-12.85c4.87,5.68,16.9,14.38,36.72-4.05Z"/><path id="path380" class="cls-32" d="M340.84,140.69s-3.37,6.08-36,5.08-19.6-19.14-19.6-19.14c10.55,4.48,28.31,7.87,51.83-2.33a32.1,32.1,0,0,1,3.76,14.31Z"/><path id="path382" class="cls-33" d="M337,124.3c-23.51,10.2-41.26,6.79-51.83,2.33-1.62-.68-3.06-1.39-4.34-2.08a35.94,35.94,0,0,1-6.75-4.54c-36,13-62.78-7-63.3-7.36a231.26,231.26,0,0,1,36-11.21c.4.51,20.16,25.21,73.09,5.58C327.06,111.5,333.29,117.19,337,124.3Z"/></svg>