<svg id="Layer_1" data-name="Layer 1" xmlns="http://www.w3.org/2000/svg" viewBox="0 0 512 512">
    <defs>
        <style>
            .cls-1 {
                fill: #ffbfdc;
            }

            .cls-12,
            .cls-2 {
                fill: #ffd2fc;
            }

            .cls-2 {
                opacity: 0.74;
            }

            .cls-2,
            .cls-3,
            .cls-4,
            .cls-8 {
                isolation: isolate;
            }

            .cls-3 {
                fill: #ff1578;
                opacity: 0.67;
            }

            .cls-4 {
                fill: #d3e6fa;
            }

            .cls-4,
            .cls-8 {
                opacity: 0.3;
            }

            .cls-5,
            .cls-8 {
                fill: #fff;
            }

            .cls-6 {
                fill: #ec368d;
            }

            .cls-7 {
                fill: #150001;
            }

            .cls-8 {
                stroke: #f5ef99;
                stroke-miterlimit: 37.8;
                stroke-width: 0.39px;
            }

            .cls-9 {
                fill: #e980fc;
            }

            .cls-10 {
                fill: #df5f95;
            }

            .cls-11 {
                fill: #ffaaf1;
            }

            .cls-13 {
                fill: #ff6aa9;
            }

            .cls-14 {
                fill: #ffc3ef;
            }

            .cls-15 {
                fill: #b96ac9;
            }

            .cls-16 {
                fill: #ff8ae6;
            }

            .cls-17 {
                fill: #ff8ab1;
            }

            .cls-18 {
                fill: #ff5ffc;
            }

            .cls-19 {
                fill: #ff8acb;
            }

            .cls-20 {
                fill: #ff6ae7;
            }

            .cls-21 {
                fill: #ec36c9;
            }

            .cls-22 {
                fill: #ff3fa6;
            }

            .cls-23 {
                fill: #88008a;
            }

            .cls-24 {
                fill: #ff6ac6;
            }

            .cls-25 {
                fill: #db1381;
            }

            .cls-26 {
                fill: #e90055;
            }
        </style>
    </defs>
    <path class="cls-1"
        d="M486.42,272.08C463.58,201.15,480,121.59,449.9,61.79S166.43-23.79,98.69,88.38c0,0-7.8,87.3-61.42,188.08C5.51,336.16,80.8,372.54,156.11,406L271.4,299.8c4.4.39,53.2-33.09,53.2-33.09L181.43,417.16c42.56,19,81.13,37.75,95.32,60.17C318.36,543.09,509.26,343,486.42,272.08Z" />
    <path id="path315" class="cls-2"
        d="M89.57,172.14S112.77,52.86,224.8,69.71s172.54,77.8,65.66,138.73-163.53,51.88-200.89-36.3Z" />
    <path id="path317" class="cls-3"
        d="M63.26,390.32C135.4,328,214.8,283,292.69,315.53s91.44-31.68,99.87-93.27S586.44,326.09,450.14,385s-171,29.92-175.22-7S63.26,390.32,63.26,390.32Z" />
    <path class="cls-4"
        d="M287.51,284.38l-131.38,121c9.68,4.3,19.35,8.54,28.85,12.78L348.12,246.67S292.52,284.82,287.51,284.38Z" />
    <path class="cls-5"
        d="M287.51,284.38l-131.38,121c9.68,4.3,19.35,8.54,28.85,12.78L348.12,246.67S292.52,284.82,287.51,284.38Z" />
    <g id="legs">
        <path id="path323" class="cls-6"
            d="M186.67,312.33s5.5,36.88,2.73,45.2-8.44,21.7-8.44,21.7a67.77,67.77,0,0,1,7.3-6.14c1.3-.93,3.09-2.41,4.82-2.32,1,.05,1.73,1,2.37,1.68a38.86,38.86,0,0,1,4.35,5.39,16.2,16.2,0,0,1,2.84,7.19v.08a9.66,9.66,0,0,1-1.25,6s5.54,1.95,4.92-10.67c.46.65.89,1.32,1.3,2a12.48,12.48,0,0,1,1.67,3.61,2.37,2.37,0,0,0,.15-.4c.07-.22.14-.46.2-.69.11-.46.21-.91.3-1.37.2-.93.35-1.86.5-2.81a17.64,17.64,0,0,0,.25-2.51c0-1.4,0-2,1.51-.94a3.67,3.67,0,0,1,1.5,3.31,8.66,8.66,0,0,0,.22-4.66,52.55,52.55,0,0,0-5.68-16,67.58,67.58,0,0,1-8-34.52,75.54,75.54,0,0,1,1.85-14.9S187.25,312.92,186.67,312.33Z" />
        <path id="path325" class="cls-6"
            d="M221.55,306.79s2.66,25.08,2.66,26.62-6.28,10.82-6.75,13.31c0,0,9.33-2.15,10.92-.56s11.85,8.26,6.31,20.46c0,0,6.77-4.1,6.77-7.18,0,0,3.7,1.85,3.18,4.72,0,0,3.29-5.42,1.64-9.33,0,0,4.82,3.61,4.82,5.13,0,0,6.16-6.26.93-12.73s-9.33-4.51-13.13-10.05-3.8-33.93-3.8-33.93-12.38,3.54-13.55,3.54Z" />
    </g>
    <path id="path328" class="cls-6"
        d="M479.62,77A199.63,199.63,0,0,0,434,123.12C399.8,171.94,373.7,228.64,323.21,263.36c-23.64,16.27-50.12,28-77.4,36.71-28.51,9-59,15.17-89,11.83a417.08,417.08,0,0,1-43.3-7.3L-117.69,429l14.26-11.78-30.48,13.88L86.84,257.82,114.46,228S241,103,279.79,100.62,332.66,74.7,332.66,74.7A42,42,0,0,1,340,68.56h0c.35-.09,6.09-1.54,14.35-3,0,0,60,17.77,83.09,10.74h0C463.65,82.05,479.62,77,479.62,77Z" />
    <circle id="circle330" class="cls-7" cx="388.78" cy="92.74" r="10.05" />
    <ellipse id="ellipse332" class="cls-8" cx="392.29" cy="93.26" rx="3.36" ry="3.03" />
    <ellipse id="ellipse334" class="cls-8" cx="392.65" cy="86.82" rx="1.25" ry="0.91" />
    <path id="path336" class="cls-9"
        d="M297.64,167.24a123.39,123.39,0,0,1-21.9,12.11c-15.58,6.36-25.58,4.68-32,.22-10.25-7.12-11.3-21.34-11.3-21.34,9.14,1.8,24.44,3.73,37.73.44.31.37,9,10.39,25.09,5.23a19.39,19.39,0,0,0,2.36,3.34Z" />
    <path id="path338" class="cls-10"
        d="M230.43,198.87c-5.7,5.24-11.16,7-16.13,6.84a20.69,20.69,0,0,1-7.65-1.88c-9.81-4.42-16.33-15-16.33-15,3.81-.86,8-3.14,12.49-7.69a41.06,41.06,0,0,0,12.51,3.17A44.2,44.2,0,0,0,230.43,198.87Z" />
    <path id="path340" class="cls-11"
        d="M206.65,203.83c-9.51,6.57-17.8,10.68-25,13-8.09,2.61-14.81,3-20.32,2.09h0a29.8,29.8,0,0,1-21.89-16c5.84-1.49,13.15-6.49,22.06-17.82A31.77,31.77,0,0,0,172.43,183c.29.32,7.55,8.21,17.89,5.84,0,0,6.52,10.6,16.33,15Z" />
    <path id="path342" class="cls-12"
        d="M202.81,181.11c-4.45,4.56-8.68,6.83-12.49,7.7-10.34,2.37-17.6-5.53-17.89-5.85,5.19-2,11-5.36,17.48-10.77a40.71,40.71,0,0,0,12.9,8.92Z" />
    <path id="path344" class="cls-13"
        d="M222.25,221.24c-35.56,11.87-40.6-4.39-40.6-4.39,7.23-2.34,15.49-6.45,25-13a20.53,20.53,0,0,0,7.67,1.86A20.15,20.15,0,0,0,222.25,221.24Z" />
    <path id="path346" class="cls-14"
        d="M320,108.43c-49.85,18.49-68.46-4.78-68.84-5.25q1.92-.45,3.84-.84c14.85-3.06,32.16-7.23,47-2.25a85,85,0,0,1,18,8.34Z" />
    <path id="path348" class="cls-15"
        d="M182.88,252.3a331.49,331.49,0,0,1-46.37,5.62,47.57,47.57,0,0,1-22.9-5.27h0a35.87,35.87,0,0,1-9.41-6.84c8.68,1,19.61-.9,31.2-10.55a17.56,17.56,0,0,0,10.54,5.84c0,.33-.37,11.63,36.94,11.2Z" />
    <path id="path350" class="cls-16"
        d="M58.82,270.43c5.12-7.59,10.43-15.57,17.16-21.85.43-.4,10.85,3.61,11.85,3.87a60.54,60.54,0,0,0,24.31.73,6.65,6.65,0,0,1,1.94-.11,7.07,7.07,0,0,1,1.84.65,47.4,47.4,0,0,0,20.59,4.19" />
    <path id="path352" class="cls-17"
        d="M113.67,252.65C97.27,258.07,76,248.58,76,248.58a83.47,83.47,0,0,0,9.1-10.5,39.13,39.13,0,0,0,19.15,7.72h0A36.12,36.12,0,0,0,113.67,252.65Z" />
    <path id="path354" class="cls-15"
        d="M148.12,213.33c-32.54,25.08-46.83,2.61-46.83,2.61,5.23-7,11.45-15.1,19.14-24.27,0,0,5.77,14.68,19,11.3A29.37,29.37,0,0,0,148.12,213.33Z" />
    <path id="path356" class="cls-12"
        d="M161.5,185.15c-8.91,11.33-16.22,16.33-22.06,17.82-13.26,3.38-19-11.3-19-11.3,5.26-6.28,11.2-13.08,18-20.44,0,0,7.32,14.06,23.09,13.92Z" />
    <path id="path358" class="cls-15"
        d="M267.62,221.47c-5.08,2.86-10.16,5.5-15.18,7.92a295.8,295.8,0,0,1-27.73,11.41c-.88.32-1.76.64-2.64.94H222c-29,8.74-44.5.61-52.55-8.28a35.94,35.94,0,0,1-8.1-14.51c5.51.89,12.23.52,20.32-2.1,0,0,5,16.27,40.6,4.4h0c7.05,5.26,20.33,8,45.37.22Z" />
    <path id="path360" class="cls-12"
        d="M222,241.77A285.29,285.29,0,0,1,182.9,252.3h0c-37.31.43-36.94-10.85-36.92-11.2a17.51,17.51,0,0,1-10.53-5.84c-11.6,9.65-22.53,11.54-31.21,10.55h0a39.13,39.13,0,0,1-19.15-7.72c4.44-5.83,9.52-13.16,16.21-22.15,0,0,14.31,22.48,46.84-2.6a29.4,29.4,0,0,0,13.21,5.6h0a36,36,0,0,0,8.09,14.54c8,8.89,23.58,17,52.54,8.29Z" />
    <path id="path362" class="cls-18"
        d="M295.32,203.24a230.74,230.74,0,0,1-27.69,18.22h0c-25,7.84-38.32,5-45.36-.22h0a20.13,20.13,0,0,1-8-15.55c5,.2,10.42-1.6,16.12-6.85,8.62,5,21,7.84,37.12,1.42C272.62,205.5,281.12,208.63,295.32,203.24Z" />
    <path id="path364" class="cls-19"
        d="M320,180.17a167.16,167.16,0,0,1-24.71,23.07c-14.2,5.39-22.69,2.26-27.76-3-16.16,6.45-28.51,3.57-37.13-1.41a44.2,44.2,0,0,1-15.1-14.59c7.83.75,17.22-.4,28.43-4.71,6.41,4.46,16.41,6.14,32-.22.34.46,16.72,21.89,44.28.82Z" />
    <path id="path366" class="cls-20"
        d="M205.5,155.06c-10.1,4.33-18,5.34-24.18,4.64-14.3-1.64-18.93-12.57-18.93-12.57q6.51-5.67,13.52-10.71h0a.08.08,0,0,1,0,0l.08.07.16.16.13.13.31.32.17.17c.24.23.52.5.85.8l.41.39c.26.24.55.51.86.78l.4.36c1,.9,2.24,2,3.62,3.06l.45.36,1.09.83.42.32.49.36.53.39.54.39c1.93,1.37,4.07,2.78,6.39,4.12l1.11.6c.7.39,1.41.77,2.13,1.13.37.19.73.38,1.11.55l.72.35.83.38,1.06.47,1,.41.8.32.75.29.78.28.76.27.92.3Z" />
    <path id="path368" class="cls-12"
        d="M243.76,179.57c-11.21,4.31-20.61,5.46-28.44,4.71a40.28,40.28,0,0,1-25.41-12.09,42.39,42.39,0,0,1-8.59-12.48c6.15.7,14.08-.31,24.18-4.64l.12,0,1.2.34.85.22.91.22c.31.07.45.11.68.15s.67.14,1,.2l.81.15.95.16,1.53.19.51,0,.64.06.5,0c.67,0,1.34.06,2,.08h.8c.91,0,1.81-.06,2.72-.14a26,26,0,0,0,2.67-.34c.31,0,.61-.1.92-.16,0,0,3.15.92,8.13,1.9,0,0,1.07,14.22,11.29,21.34Z" />
    <path id="path370" class="cls-15"
        d="M189.91,172.19c-6.46,5.43-12.29,8.82-17.48,10.77a31.68,31.68,0,0,1-10.93,2.19c-15.76.14-23.09-13.92-23.09-13.92q6.14-6.66,13.23-13.93,3.15-3.23,6.46-6.29,2.11-2,4.29-3.87s4.64,10.93,18.94,12.57A42.17,42.17,0,0,0,189.91,172.19Z" />
    <path id="path372" class="cls-21"
        d="M250.71,137.39c-8.34,11.71-17.48,17.21-26.37,18.94-.31.06-.6.12-.92.16-.9.16-1.79.27-2.68.34s-1.81.13-2.71.14h-.81c-.67,0-1.34,0-2-.08l-.5,0-.65-.06-.5,0-1.54-.19-1-.16-.81-.15c-.33-.06-.68-.12-1-.2s-.46-.1-.68-.15l-.91-.22-.84-.22-1.21-.34-.11,0-.65-.2-.91-.3-.77-.27-.77-.27-.75-.3-.8-.31c-.26-.11-.67-.27-1-.42l-1.07-.47-.83-.38-.71-.34c-.38-.18-.75-.37-1.11-.56-.73-.36-1.44-.74-2.13-1.12l-1.12-.61c-2.31-1.33-4.46-2.74-6.39-4.12L186,145l-.53-.39-.48-.35-.43-.33-1.08-.83c-.15-.12-.31-.23-.45-.35-1.42-1.12-2.64-2.16-3.62-3.07-.14-.11-.27-.23-.4-.35l-.87-.78-.41-.39c-.32-.31-.6-.6-.84-.81a1.29,1.29,0,0,0-.17-.16l-.32-.32-.12-.13-.17-.17-.07-.07,0,0h0a191.23,191.23,0,0,1,16.87-10.85s21.79,18.85,57.89,11.77Z" />
    <path id="path374" class="cls-6"
        d="M283.21,124.93a108.15,108.15,0,0,1-32.5,12.44c-36.11,7.09-57.93-11.8-57.93-11.8q7.59-4.35,15.56-8,4.4-2,8.88-3.84h0c.49.37,25.7,19.2,59.63,6.93a33.74,33.74,0,0,0,6.36,4.28Z" />
    <path id="path376" class="cls-22"
        d="M339.68,140.14c-.21,8.2-3.2,16.21-7.43,23.29-18.68,17.36-30,9.16-34.59,3.81a20,20,0,0,1-2.36-3.34c-16,5.16-24.78-4.86-25.09-5.23C257,162,241.62,160,232.49,158.23c-5-1-8.13-1.9-8.13-1.9,8.92-1.73,18-7.23,26.38-18.94a108.42,108.42,0,0,0,32.49-12.45c1.21.65,2.57,1.31,4.09,2,0,0-12.25,17.09,18.46,18s33.9-4.79,33.9-4.79Z" />
    <path id="path378" class="cls-23"
        d="M332.23,163.43A120.6,120.6,0,0,1,320,180.17c-27.56,21.09-43.94-.36-44.29-.82a123.39,123.39,0,0,0,21.9-12.11c4.59,5.35,15.92,13.55,34.59-3.81Z" />
    <path id="path380" class="cls-24"
        d="M339.68,140.14s-3.18,5.73-33.9,4.79-18.46-18-18.46-18c9.94,4.22,26.66,7.41,48.82-2.2a30.41,30.41,0,0,1,3.54,13.49Z" />
    <path id="path382" class="cls-12"
        d="M336.1,124.7c-22.14,9.61-38.87,6.4-48.82,2.2-1.52-.65-2.88-1.31-4.08-2a33.69,33.69,0,0,1-6.36-4.27c-33.93,12.26-59.14-6.57-59.63-6.94a216.82,216.82,0,0,1,33.94-10.55c.38.47,19,23.74,68.84,5.25C326.7,112.65,332.56,118,336.1,124.7Z" />
    <path id="path387" d="M433.3,93.26S476.39,77.59,479.62,77C479.62,77,461.72,85.64,433.3,93.26Z" />
    <path id="path389" class="cls-25" d="M367.9,185s-84,102-212.82,107.56c0,0,129.26,4.15,212.82-107.56Z" />
    <path id="path391" class="cls-26"
        d="M407.09,65.82c-14.27-5.6-37.65-2.94-52.7-.28-8.26,1.46-14,2.91-14.35,3,10.45-7.1,31.84-16.37,63.1-4.62,1.33.65,2.65,1.28,3.95,1.89Z" />
    <path id="path385" class="cls-25" d="M361,167.94S302.81,251,229.41,260.75c0,0,83.09-10.64,131.57-92.81Z" />
    <path id="path393" class="cls-25" d="M412,157S269.7,320.7,163.77,312.49C163.77,312.49,316.25,336.3,412,157Z" />
    <path id="path395" class="cls-25" d="M79.38,293.5l-104.8,70.17S76.3,298.32,79.38,293.5Z" />
    <path id="path397" class="cls-25"
        d="M344.05,97.87l33.24-2.47s-9.85,3.69-11.7,5.53,13.75.41,13.75.41L373,106.27s13.33.2,19.29-1.64,22.14-6.55,22.14-6.55l-12.5,6.36,17.85-1.21-17.85,7.59H413.4a65.94,65.94,0,0,1-35.29,7.59c-20.11-1.44-23.8-8.62-31.8-8.62,0,0,10-2,11.48-2.56,0,0-3.33-2.93-10-2.93s-10.73-5.74-10.73-5.74Z" />
    <path id="path399" class="cls-25"
        d="M437.48,76.28a31.94,31.94,0,0,1-3.87.9c-1.46.24-2.92.42-4.38.53-1.61.13-3.22.19-4.83.21s-3.44,0-5.17-.09-3.62-.19-5.42-.34-3.76-.35-5.63-.57-3.83-.47-5.74-.75-3.85-.6-5.77-.9-3.81-.66-5.72-1-3.72-.71-5.58-1.09S381.79,72.41,380,72l-5.07-1.15-4.7-1.13c-1.41-.34-2.83-.7-4.22-1.06s-2.47-.6-3.71-1l-3.08-.83c-1.21-.33-2.41-.65-3.62-1a6.14,6.14,0,0,1-.72-.15c-.3-.13,0-.29.16-.35a4.73,4.73,0,0,1,.91-.18l1.58-.26c1.11-.19,2.22-.36,3.32-.52q3.52-.51,7.08-.93,3.72-.42,7.47-.69c2.49-.17,5.07-.29,7.62-.34s5,0,7.51.14a70.46,70.46,0,0,1,7.14.73,48.81,48.81,0,0,1,6.56,1.42c1,.29,1.93.61,2.88,1s1.88.87,2.82,1.28a145.2,145.2,0,0,0,27.55,9.2Z" />
    <polygon id="polygon401" class="cls-25" points="-133.91 431.07 73.41 268.56 -103.43 417.22 -133.91 431.07" />
    <polygon id="polygon403" class="cls-25" points="22.44 348.9 113.54 304.59 -117.69 429 22.44 348.9" />
</svg>